# xmcd
# 
# Track frame offsets:
#     150
#     41062
#     65725
#     76457
#     110272
#     169850
#     209952
# 
# Disc length: 3196
# 
# Revision: 1
# Processed by: cddbd v1.5.2PL0 Copyright (c) Steve Scherf et al.
# Submitted via: fre:ac v1.0.31
# 
DISCID=670c7a07
DTITLE=DIRE STRAITS - Sultans of Swing (Live) CD 2
DYEAR=0
DGENRE=
TTITLE0=Calling Elvis
TTITLE1=Walk of Life
TTITLE2=Last Exit to Brooklyn
TTITLE3=Romeo and Juliet
TTITLE4=Sultans of Swing
TTITLE5=Brothers in Arms
TTITLE6=Money for Nothing
EXTD=
EXTT0=
EXTT1=
EXTT2=
EXTT3=
EXTT4=
EXTT5=
EXTT6=
PLAYORDER=
